<?xml version="1.0" encoding="utf-8"?>
<!-- Generator: Adobe Illustrator 25.2.3, SVG Export Plug-In . SVG Version: 6.00 Build 0)  -->
<svg version="1.1" id="Слой_1" xmlns="http://www.w3.org/2000/svg" xmlns:xlink="http://www.w3.org/1999/xlink" x="0px" y="0px"
	 viewBox="0 0 231.8 28.2" style="enable-background:new 0 0 231.8 28.2;" xml:space="preserve">
<style type="text/css">
	.st0{fill:#1F6CC4;}
</style>
<g>
	<g>
		<path class="st0" d="M7.2,12.4C7.2,12.4,7.2,12.4,7.2,12.4c1.2,0,2.1-1.2,1.5-2.2C7.3,7.6,7.6,4.5,8.8,1.9c0.3-0.6,0.5-1.3,1-1.7
			c0.9-0.6,1.4,0.1,1.6,0.9c0.3,1.2,0.9,2.1,1.6,3.1c1.4,2.3,2.9,4.5,4.5,6.7c1.4,1.9,2.4,3.9,2.9,6.2c0.7,3.8-0.7,8.6-4.6,10.5
			c-0.5,0.2-0.4-0.4-0.4-0.4c0-0.2,0.3-0.5,0.3-0.6c0.2-0.6,0.3-1.2,0.3-1.9c-0.2-3.4-2.9-5.8-4.5-8.7c-0.2-0.5,0,0-0.7-1.5
			c-0.6-1.2-1.6,0.8-1.8,1.4c-0.1,0.7-0.1,1.4-0.2,2c-0.2,1.4-1.4,2.1-2.4,2.9c-0.9,0.8-1.6,2-1.8,3.2c-0.1,0.6,0,1.3,0.2,1.9
			c0.1,0.3,0.7,1,0.5,1.3c-0.6,0.8-2.2-1.1-2.5-1.5c-0.9-0.9-1.7-2-2.2-3.2c-0.7-1.6-0.9-3.5-0.5-5.2c0.4-1.6,1.3-3.1,2.2-4.5
			c0.5-0.8,1.1-1.6,1.8-2.3c0.7-0.7,0.8-0.3,1.1,0.4C5.7,11.8,6.3,12.4,7.2,12.4z"/>
		<path class="st0" d="M11,28.1c1.1-0.3,1.2-1.5,1.1-2.4c-0.1-0.6-0.3-1.2-0.6-1.7c-0.1-0.1-1-1.5-1-1.4c-0.8,1.1-2.6,3.7-1.5,5.1
			c0.1,0.1,0.2,0.2,0.4,0.3C9.8,28.2,10.4,28.2,11,28.1z"/>
	</g>
</g>
<g>
	<g>
		<path class="st0" d="M30.6,4.7h17.9c5.4,0.8,8,3.2,7.7,7.4c-0.1,3.1-1.5,5.5-4.3,7.3l3.6,7.2h-8.6l-3.5-6.9h-6.8l-0.8,6.8l-7.7,0
			L30.6,4.7z M37.4,14l9.5,0c1.5,0,2.3-0.6,2.5-1.8c0.2-1.2-0.4-1.8-2-2h-9.6L37.4,14z"/>
		<path class="st0" d="M75.8,26.9H63.6c-5.4,0-7.7-3.7-6.8-11.1c0.8-7.5,4.2-11.3,9.9-11.4l10.1,0c6-0.1,8.6,3.5,7.6,10.9
			C84,23,81.1,26.8,75.8,26.9z M63.8,19.3c0.4,1,1.1,1.6,2.3,1.8l7.2,0c1.2-0.1,2.1-0.6,2.6-1.4c0.6-0.6,1-2,1.3-4.3
			c0.2-2.3,0-3.7-0.6-4.3c-0.6-0.7-1.5-1-2.7-1.1h-5.6c-1.6,0.1-2.8,0.8-3.4,2c-0.4,0.6-0.8,1.8-1.1,3.8
			C63.6,17.7,63.6,18.9,63.8,19.3z"/>
		<path class="st0" d="M84,26.5l1.8-14.9c0.8-4.5,4-6.8,9.6-7l8.7,0c5.1,0.3,7.4,2.6,7.1,7l-1.8,15h-6.9l0.8-6.7l-11.5,0l-0.8,6.7
			H84z M92.9,12.1l-0.3,2.3H104l0.2-1.8c0.4-1.7-0.2-2.6-1.7-2.8l-6.9,0C93.7,9.8,92.8,10.6,92.9,12.1z"/>
		<path class="st0" d="M136.2,10.4h-14.3c-1,0-1.7,0-2.2,0.1s-1,0.4-1.4,1c0.1,0.7,0.5,1.1,1,1.2s1.4,0.1,2.5,0.1h7
			c2.8,0.1,4.8,0.8,5.9,2.1s1.5,3,1.3,5.2c-0.4,2.2-1.3,3.9-2.8,4.9s-3.8,1.6-7.1,1.6h-15.6l0.7-5.6H126c1.3,0,2.3,0,2.9-0.1
			c0.7-0.1,1.1-0.5,1.4-1.3c-0.1-0.6-0.4-1-1-1.1c-0.6-0.1-1.6-0.2-3-0.2h-6.8c-3,0-5.1-0.6-6.3-1.8c-1.2-1.2-1.7-2.9-1.5-5.1
			c0.5-2.3,1.5-3.9,2.9-5c1.5-1,3.8-1.6,7-1.7h15.2L136.2,10.4z"/>
		<path class="st0" d="M160.5,4.7l-0.7,6.2l-13.2,0l-0.9,7.4c0,1.3,0.8,2,2.4,2.2l15.7,0l-0.7,6.2h-17.8c-5.6-0.2-8.1-3-7.4-8.2
			l0.9-7.6l-2.1,0l0.7-6.2H160.5z"/>
		<path class="st0" d="M171.2,26.7l2.6-22l23.2,0c5.1-0.1,7.5,2.2,7.2,6.9l-1.8,15h-6.5l1.5-13.3c0.4-1.6-0.2-2.4-1.7-2.4l-3.5,0
			l-1.9,15.7l-6.5,0l1.8-15.7l-5.6,0l-1.8,15.7H171.2z"/>
		<path class="st0" d="M229.2,26.6H211c-5.2-0.3-7.4-3.9-6.6-10.9s4-10.7,9.7-10.9h17.7l-0.6,5.3l-15.7,0c-1.3,0-2.1,0.2-2.4,0.8
			l-0.6,1.9l18.4,0l-0.7,5.3L212,18l0,1.2c0,1,0.5,1.6,1.3,1.7l16.6,0L229.2,26.6z"/>
	</g>
</g>
</svg>
