<?xml version="1.0" encoding="UTF-8" standalone="no"?>
<!-- Generator: Adobe Illustrator 25.2.3, SVG Export Plug-In . SVG Version: 6.00 Build 0)  -->

<svg
   version="1.1"
   id="Слой_1"
   x="0px"
   y="0px"
   viewBox="0 0 29.999998 7.3790002"
   xml:space="preserve"
   sodipodi:docname="roast-me-gray.svg"
   width="30"
   height="7.3790002"
   inkscape:export-filename="roast-me-gray.svg"
   inkscape:export-xdpi="96"
   inkscape:export-ydpi="96"
   xmlns:inkscape="http://www.inkscape.org/namespaces/inkscape"
   xmlns:sodipodi="http://sodipodi.sourceforge.net/DTD/sodipodi-0.dtd"
   xmlns="http://www.w3.org/2000/svg"
   xmlns:svg="http://www.w3.org/2000/svg"><defs
   id="defs49" /><sodipodi:namedview
   id="namedview47"
   pagecolor="#ffffff"
   bordercolor="#666666"
   borderopacity="1.0"
   inkscape:showpageshadow="2"
   inkscape:pageopacity="0.0"
   inkscape:pagecheckerboard="0"
   inkscape:deskcolor="#d1d1d1"
   showgrid="false" />
<style
   type="text/css"
   id="style18">
	.st0{fill:#343336;}
	.st1{fill:#FFFFFF;}
	.st2{enable-background:new    ;}
</style>
<g
   id="g28"
   transform="matrix(0.15059738,0,0,0.15059738,0,-0.96599135)">
	<path
   class="st0"
   d="M 25.325029,43.019892 H 11.28047 C 5.0799469,43.019892 0,37.939945 0,31.739422 V 17.694863 C 0,11.494342 5.0799469,6.4143968 11.28047,6.4143968 h 13.969854 c 6.275229,0 11.355175,5.0799452 11.355175,11.2804662 v 13.969854 c 0,6.275228 -5.079946,11.355175 -11.28047,11.355175 z"
   id="path20"
   style="fill:#1c2224;stroke-width:0.747051" />
	<g
   id="g26"
   transform="matrix(0.74705101,0,0,0.74705101,0,6.4143968)">
		<path
   class="st1"
   d="m 20.3,22.4 v 0 c 1.6,0 2.7,-1.4 2,-2.8 -1.9,-3.3 -1.6,-7.1 0.2,-10.2 0.3,-0.8 0.6,-1.7 1.4,-2.2 1.1,-0.8 1.9,0.2 2,1.1 0.5,1.4 1.3,2.5 2,3.8 1.9,2.8 3.9,5.7 6,8.3 1.7,2.4 3.2,4.9 3.8,7.7 0.9,4.7 -0.9,10.7 -6,13.1 -0.6,0.3 -0.6,-0.5 -0.6,-0.5 0,-0.2 0.3,-0.6 0.5,-0.8 0.3,-0.8 0.5,-1.6 0.5,-2.4 -0.3,-4.3 -3.9,-7.2 -6,-10.7 -0.3,-0.6 0,0 -0.9,-1.9 -0.8,-1.6 -2.2,0.9 -2.4,1.7 -0.2,0.8 -0.2,1.7 -0.3,2.5 -0.3,1.7 -1.7,2.5 -3.2,3.6 -1.3,0.9 -2.2,2.5 -2.4,3.9 -0.2,0.8 0,1.6 0.3,2.4 0.2,0.3 0.9,1.3 0.6,1.7 -0.8,1.1 -3,-1.4 -3.3,-1.7 -1.3,-1.1 -2.2,-2.5 -2.8,-3.9 -0.9,-2 -1.3,-4.3 -0.6,-6.5 0.5,-2 1.7,-3.8 3,-5.5 0.6,-0.9 1.4,-2 2.4,-2.8 0.9,-0.8 1.1,-0.3 1.4,0.5 0.4,0.8 1.3,1.6 2.4,1.6 z"
   id="path22" />
		<path
   class="st1"
   d="m 25.2,41.9 c 1.4,-0.3 1.6,-1.9 1.4,-3 -0.2,-0.8 -0.5,-1.4 -0.8,-2.2 -0.2,-0.2 -1.3,-1.9 -1.4,-1.7 -1.1,1.4 -3.3,4.6 -1.9,6.5 0.2,0.2 0.3,0.3 0.5,0.5 0.8,0.1 1.6,0.1 2.2,-0.1 z"
   id="path24" />
	</g>
</g>
<g
   class="st2"
   id="g44"
   transform="matrix(0.11250392,0,0,0.11250392,0.39929478,0.36479095)"
   style="fill:#164450">
	<path
   class="st0"
   d="m 54.8,13.4 h 18.4 c 5.6,0.7 8.2,3.2 8,7.2 -0.1,3 -1.6,5.4 -4.5,7.1 l 3.7,7 H 71.5 L 67.9,28 H 60.8 L 60,34.6 h -8 z m 6.9,9.1 h 9.8 c 1.5,0 2.4,-0.6 2.6,-1.7 0.2,-1.1 -0.5,-1.8 -2,-2 h -9.9 z"
   id="path30"
   style="fill:#164450" />
	<path
   class="st0"
   d="M 101.4,35.1 H 88.7 c -5.6,0 -8,-3.6 -7,-10.9 0.9,-7.3 4.3,-11 10.3,-11.1 h 10.4 c 6.2,-0.1 8.8,3.5 7.9,10.6 -0.5,7.5 -3.5,11.3 -8.9,11.4 z M 89,27.7 c 0.4,1 1.2,1.6 2.3,1.7 h 7.5 c 1.3,-0.1 2.2,-0.6 2.7,-1.4 0.6,-0.6 1.1,-2 1.3,-4.2 0.2,-2.2 0.1,-3.6 -0.6,-4.2 -0.6,-0.6 -1.5,-1 -2.8,-1.1 h -5.7 c -1.7,0.1 -2.8,0.7 -3.5,1.9 -0.5,0.5 -0.8,1.8 -1.1,3.7 -0.3,2 -0.3,3.2 -0.1,3.6 z"
   id="path32"
   style="fill:#164450" />
	<path
   class="st0"
   d="m 109.8,34.7 1.8,-14.5 c 0.8,-4.4 4.1,-6.6 9.9,-6.8 h 9 c 5.2,0.3 7.7,2.5 7.4,6.8 L 136,34.7 h -7.1 l 0.8,-6.5 h -11.8 l -0.8,6.5 z m 9.1,-14.1 -0.3,2.3 h 11.8 l 0.2,-1.8 c 0.4,-1.6 -0.2,-2.6 -1.8,-2.8 h -7.2 c -1.8,0.1 -2.7,0.9 -2.7,2.3 z"
   id="path34"
   style="fill:#164450" />
	<path
   class="st0"
   d="m 163.6,19 h -14.7 c -1,0 -1.8,0 -2.3,0.1 -0.5,0.1 -1,0.4 -1.4,0.9 0.1,0.7 0.5,1.1 1,1.2 0.6,0.1 1.4,0.1 2.6,0.1 h 7.2 c 2.9,0.1 4.9,0.8 6.1,2 1.2,1.2 1.6,2.9 1.3,5.1 -0.4,2.2 -1.4,3.8 -2.9,4.8 -1.5,1 -3.9,1.6 -7.3,1.6 h -16.1 l 0.7,-5.5 h 15.3 c 1.3,0 2.3,0 3,-0.1 0.7,-0.1 1.2,-0.5 1.4,-1.2 -0.1,-0.6 -0.4,-0.9 -1.1,-1.1 -0.6,-0.1 -1.6,-0.2 -3.1,-0.2 h -7 c -3.1,0 -5.2,-0.6 -6.5,-1.8 -1.3,-1.2 -1.8,-2.9 -1.5,-5 0.5,-2.2 1.5,-3.8 3,-4.8 1.5,-1 3.9,-1.6 7.2,-1.7 h 15.7 z"
   id="path36"
   style="fill:#164450" />
	<path
   class="st0"
   d="m 188.7,13.4 -0.7,6 h -13.6 l -0.9,7.2 c 0,1.3 0.8,2 2.5,2.1 h 16.2 l -0.7,6 H 173 c -5.8,-0.2 -8.3,-2.9 -7.6,-8 l 1,-7.4 h -2.2 l 0.8,-6 h 23.7 z"
   id="path38"
   style="fill:#164450" />
	<path
   class="st0"
   d="m 199.7,34.8 2.7,-21.4 h 23.9 c 5.3,-0.1 7.8,2.1 7.5,6.8 L 232,34.8 h -6.8 l 1.6,-12.9 c 0.4,-1.6 -0.2,-2.4 -1.7,-2.3 h -3.6 l -1.9,15.2 h -6.7 l 1.9,-15.3 H 209 l -2,15.3 z"
   id="path40"
   style="fill:#164450" />
	<path
   class="st0"
   d="m 259.5,34.8 h -18.8 c -5.4,-0.3 -7.6,-3.8 -6.8,-10.7 0.8,-6.8 4.2,-10.4 10,-10.6 h 18.2 l -0.6,5.2 h -16.2 c -1.4,0 -2.2,0.2 -2.5,0.8 l -0.6,1.8 h 19 l -0.7,5.1 -18.8,-0.1 v 1.2 c 0.1,1 0.5,1.6 1.4,1.6 h 17.1 z"
   id="path42"
   style="fill:#164450" />
</g>
</svg>
