<?xml version="1.0" encoding="utf-8"?>
<!-- Generator: Adobe Illustrator 25.2.3, SVG Export Plug-In . SVG Version: 6.00 Build 0)  -->
<svg version="1.1" id="Слой_1" xmlns="http://www.w3.org/2000/svg" xmlns:xlink="http://www.w3.org/1999/xlink" x="0px" y="0px"
	 viewBox="0 0 154.4 18.8" style="enable-background:new 0 0 154.4 18.8;" xml:space="preserve">
<style type="text/css">
	.st0{fill:#FFFFFF;}
</style>
<g>
	<g>
		<path class="st0" d="M4.8,8.3C4.8,8.3,4.8,8.3,4.8,8.3c0.8,0,1.4-0.8,1-1.5c-1-1.7-0.8-3.8,0-5.5C6,0.9,6.2,0.4,6.6,0.1
			c0.6-0.4,0.9,0.1,1.1,0.6c0.2,0.8,0.6,1.4,1,2.1c0.9,1.5,2,3,3,4.4c0.9,1.2,1.6,2.6,1.9,4.1c0.5,2.5-0.5,5.8-3.1,7
			c-0.3,0.2-0.3-0.3-0.3-0.3c0-0.1,0.2-0.3,0.2-0.4c0.2-0.4,0.2-0.8,0.2-1.2c-0.1-2.2-2-3.9-3-5.8c-0.1-0.3,0,0-0.5-1
			c-0.4-0.8-1.1,0.5-1.2,0.9C6,11.1,6,11.5,5.9,12c-0.1,0.9-0.9,1.4-1.6,2c-0.6,0.5-1.1,1.3-1.2,2.1c0,0.4,0,0.8,0.2,1.2
			c0.1,0.2,0.5,0.7,0.3,0.9c-0.4,0.6-1.5-0.8-1.7-1c-0.6-0.6-1.1-1.3-1.5-2.1C0,14-0.1,12.8,0.1,11.7c0.3-1.1,0.9-2,1.5-3
			C2,8.1,2.4,7.6,2.8,7.1C3.3,6.7,3.4,7,3.6,7.4C3.8,7.9,4.2,8.3,4.8,8.3z"/>
		<path class="st0" d="M7.3,18.7c0.7-0.2,0.8-1,0.7-1.6c-0.1-0.4-0.2-0.8-0.4-1.2c0-0.1-0.7-1-0.7-0.9c-0.5,0.8-1.7,2.5-1,3.4
			c0.1,0.1,0.2,0.2,0.2,0.2C6.5,18.8,7,18.8,7.3,18.7z"/>
	</g>
</g>
<g>
	<g>
		<path class="st0" d="M20.4,3.1h11.9c3.6,0.5,5.3,2.2,5.1,5c0,2-1,3.7-2.9,4.9l2.4,4.8h-5.7l-2.3-4.6h-4.6l-0.5,4.5l-5.2,0
			L20.4,3.1z M24.9,9.3l6.3,0c1,0,1.5-0.4,1.7-1.2c0.1-0.8-0.3-1.2-1.3-1.4h-6.4L24.9,9.3z"/>
		<path class="st0" d="M50.5,17.9h-8.2c-3.6,0-5.1-2.5-4.5-7.4c0.6-5,2.8-7.5,6.6-7.6l6.7,0c4-0.1,5.7,2.4,5.1,7.3
			C55.9,15.3,54,17.9,50.5,17.9z M42.5,12.9c0.2,0.7,0.8,1.1,1.5,1.2l4.8,0c0.8-0.1,1.4-0.4,1.7-0.9c0.4-0.4,0.7-1.3,0.8-2.8
			c0.2-1.5,0-2.5-0.4-2.9c-0.4-0.4-1-0.7-1.8-0.8h-3.7c-1.1,0.1-1.8,0.5-2.3,1.3c-0.3,0.4-0.5,1.2-0.7,2.5
			C42.4,11.8,42.4,12.6,42.5,12.9z"/>
		<path class="st0" d="M55.9,17.7l1.2-9.9c0.5-3,2.7-4.5,6.4-4.7l5.8,0c3.4,0.2,5,1.7,4.8,4.6l-1.2,10h-4.6l0.5-4.4l-7.6,0l-0.5,4.4
			H55.9z M61.9,8.1l-0.2,1.6h7.6l0.2-1.2c0.2-1.1-0.1-1.8-1.2-1.9l-4.6,0C62.4,6.6,61.8,7.1,61.9,8.1z"/>
		<path class="st0" d="M90.7,7h-9.5C80.5,7,80,7,79.7,7c-0.3,0.1-0.7,0.3-0.9,0.6c0.1,0.5,0.3,0.7,0.7,0.8c0.4,0.1,0.9,0.1,1.7,0.1
			h4.7c1.9,0.1,3.2,0.5,3.9,1.4c0.7,0.8,1,2,0.9,3.5c-0.3,1.5-0.9,2.6-1.8,3.3c-1,0.7-2.5,1.1-4.7,1.1H73.6L74,14h9.9
			c0.9,0,1.5,0,1.9-0.1c0.4-0.1,0.8-0.3,0.9-0.8c-0.1-0.4-0.3-0.6-0.7-0.7c-0.4-0.1-1.1-0.1-2-0.1h-4.5c-2,0-3.4-0.4-4.2-1.2
			s-1.1-2-1-3.4c0.3-1.5,1-2.6,1.9-3.3c1-0.7,2.5-1.1,4.6-1.2h10.2L90.7,7z"/>
		<path class="st0" d="M106.9,3.1l-0.5,4.1l-8.8,0L97,12.2c0,0.9,0.5,1.4,1.6,1.4l10.5,0l-0.5,4.1H96.8c-3.7-0.2-5.4-2-4.9-5.5
			l0.6-5.1l-1.4,0l0.5-4.1H106.9z"/>
		<path class="st0" d="M114,17.8l1.7-14.7l15.4,0c3.4-0.1,5,1.5,4.8,4.6l-1.2,10h-4.4l1-8.8c0.2-1.1-0.1-1.6-1.1-1.6l-2.3,0
			l-1.2,10.4l-4.4,0l1.2-10.5l-3.7,0l-1.2,10.5H114z"/>
		<path class="st0" d="M152.7,17.7h-12.1c-3.5-0.2-4.9-2.6-4.4-7.3c0.5-4.7,2.7-7.1,6.4-7.3h11.8L154,6.7l-10.4,0
			c-0.9,0-1.4,0.2-1.6,0.6l-0.4,1.2l12.3,0l-0.4,3.5l-12.2,0l0,0.8c0,0.7,0.3,1.1,0.9,1.1l11,0L152.7,17.7z"/>
	</g>
</g>
</svg>
